<svg style="shape-rendering:geometricPrecision; text-rendering:geometricPrecision; image-rendering:optimizeQuality; fill-rule:evenodd; clip-rule:evenodd"
     width="40px" height="40px" viewBox="9380 12522 4000 4000" xmlns="http://www.w3.org/2000/svg">
    <style type="text/css">

        .str0 {
        stroke: #fff;
        stroke-width: 30
        }

        .str1 {
        stroke: #fff;
        stroke-width: 30
        }

        .fil0 {
        fill: none
        }

        .navBarMenuFirstPart {
        }

        .navBarMenuFirstPart:hover {
        stroke: green;
        display: none;
        /*transform: translate(30) rotate(45 50 50);*/
        }

        .navBarMenuSecondPart {
        stroke: yellow;
        width: 40px;
        }

        .navBarMenuThirdPart {
        stroke: red;
        }

        @keyframes backRotateImg1 {
        from {
        transform: rotate(40deg);
        margin-top: 17px;
        }
        to {
        transform: rotate(0deg);
        margin: 0;
        }
        }

        @keyframes rotateImg1 {
        from {
        transform: rotate(0deg);
        margin: 0;
        }
        to {
        transform: rotate(40deg);
        margin-top: 17px;

        }
        }

        @keyframes backRotateImg3 {
        from {
        transform: rotate(-40deg);
        margin-top: -10px;

        }
        to {
        transform: rotate(0deg);
        margin: 0;
        }
        }

        @keyframes rotateImg3 {
        from {
        transform: rotate(0deg);
        margin: 0;
        }
        to {
        transform: rotate(-40deg);
        margin-top: -10px;

        }
        }


    </style>
    <path class="fil0 str1 navBarMenuFirstPart"
          d="M11897 13871c164,-73 1381,-165 257,-521 -1950,-618 -3432,208 -1728,86 246,-17 2313,9 2307,-24 -44,-221 -3210,-442 -2865,-63 110,121 5500,419 1526,-89 -91,-11 -1783,-291 -1596,136 79,180 2211,250 2568,295 182,23 527,105 699,37"/>
    <path class="fil0 str0 navBarMenuSecondPart"
          d="M12580 14304c-163,73 -3364,-104 -2239,253 1950,617 3432,-209 1728,-87 -167,12 -1139,71 -1766,74 -2100,12 2724,453 2324,13 -204,-223 -5698,-429 -911,53 505,51 1099,172 981,-99"/>
    <path class="fil0 str1 navBarMenuThirdPart"
          d="M11930 15479c164,73 1443,-178 318,178 -1949,618 -3431,-208 -1727,-86 246,18 2313,-9 2307,24 -44,221 -3210,442 -2865,63 203,-223 5692,-412 911,53 -506,49 -1100,171 -981,-100 96,-219 2571,-378 3246,-110"/>
</svg>
